<svg version="1.2" xmlns="http://www.w3.org/2000/svg" viewBox="0 0 425 1552" width="425" height="1552">
	<title>midel</title>
	<style>
		.s0 { fill: green } 
	</style>
	<g id="midel">
		<g id="Security and Fire">
			<path id="-e-bg-phone" class="s0" d="m0 16.8c0 0 22.2 5.6 47.5 7 28.3 1.5 61.9-0.4 71.8-1.7 6.2-0.8 15.5-2.2 45.9-6.9 37.3-5.7 87.5-14.7 122.2-14.5 76.2 0.4 137.6 22.1 137.6 22.1v1519.8c0 0-27.3-8.2-50.5-11.3-8.5-0.5-23-3.2-40-4.3-13.9-0.9-6.4-0.7-39.5-0.3-33.1 0.4-68.6 10.6-89.4 15-20.8 4.4-46.3 10.2-68.7 10.2-14.8 0-45.7-0.1-74.5-4.4-32.6-4.9-62.4-14.2-62.4-14.2z"/>
		</g>
	</g>
</svg>