 <svg viewBox="0 0 1920 173" fill="white" xmlns="http://www.w3.org/2000/svg" class="w-full">
            <path
              fill-rule="evenodd"
              clip-rule="evenodd"
              d="M1920 0.99742H0V58.9974C0 58.9974 107.37 103.124 183.846 119.427C246.979 132.884 294.223 147.83 376.796 157.534C566.064 179.778 743.606 172.037 780.344 168.996C817.083 165.956 941.28 151.697 1039.36 136.724C1093.18 128.507 1148.88 115.619 1204.82 107.84C1191.78 109.653 1294.15 91.3442 1425.23 81.0497C1487.98 76.1196 1557.32 75.1115 1623.72 74.2307C1686.29 73.4005 1746.26 80.1688 1795.68 86.1859C1869.67 95.1936 1920 105.997 1920 105.997V0.99742Z"
              fill="#f1f5f9"
              height="10px"
            />
          </svg>