<svg version="1.2" xmlns="http://www.w3.org/2000/svg" viewBox="0 0 1921 917" width="1921" height="917"><style>.a{fill:#fafafa}</style><path class="a" d="m1 171.8h1920v-58c0 0-107.4-44.1-183.8-60.5-63.2-13.4-110.4-28.4-193-38.1-189.3-22.2-366.8-14.5-403.5-11.4-36.8 3-161 17.3-259.1 32.3-53.8 8.2-109.5 21.1-165.4 28.8 13-1.8-89.3 16.5-220.4 26.8-62.8 5-132.1 6-198.5 6.8-62.6 0.9-122.6-5.9-172-11.9-74-9-124.3-19.8-124.3-19.8zm1920-42.1h-1920v673.3c0 0 107.4 44.1 183.8 60.4 63.2 13.5 110.4 28.4 193 38.1 189.3 22.3 366.8 14.5 403.5 11.5 36.8-3 161-17.3 259.1-32.3 53.8-8.2 109.5-21.1 165.4-28.9-13 1.9 89.3-16.5 220.4-26.7 62.8-5 132.1-6 198.5-6.9 62.6-0.8 122.6 6 172 12 74 9 124.3 19.8 124.3 19.8z"/></svg>